<svg width="69" height="69" viewBox="0 0 69 69" fill="none" xmlns="http://www.w3.org/2000/svg">
<g id="Botao de Fechar" opacity="0.87" filter="url(#filter0_d_254_2433)">
<circle id="Ellipse 1" cx="28.6187" cy="28.6187" r="28.6187" transform="matrix(-1 0 0 1 63.2695 0)" fill="black"/>
<g id="Group 6">
<g id="Group 30">
<path id="Union" fill-rule="evenodd" clip-rule="evenodd" d="M27.8689 15.8622C27.022 15.0153 27.022 13.6422 27.8689 12.7953C28.7158 11.9484 30.0888 11.9484 30.9357 12.7953L45.2421 27.0975C45.686 27.5415 45.8973 28.13 45.8757 28.7116C45.9505 29.348 45.7437 30.0112 45.2555 30.4995L30.9339 44.8241C30.087 45.671 28.7139 45.671 27.867 44.8241C27.0201 43.9772 27.0201 42.6041 27.867 41.7572L40.816 28.8055L27.8689 15.8622Z" fill="white"/>
</g>
</g>
</g>
<defs>
<filter id="filter0_d_254_2433" x="0.541905" y="0" width="68.217" height="68.217" filterUnits="userSpaceOnUse" color-interpolation-filters="sRGB">
<feFlood flood-opacity="0" result="BackgroundImageFix"/>
<feColorMatrix in="SourceAlpha" type="matrix" values="0 0 0 0 0 0 0 0 0 0 0 0 0 0 0 0 0 0 127 0" result="hardAlpha"/>
<feOffset dy="5.48934"/>
<feGaussianBlur stdDeviation="2.74467"/>
<feComposite in2="hardAlpha" operator="out"/>
<feColorMatrix type="matrix" values="0 0 0 0 0 0 0 0 0 0 0 0 0 0 0 0 0 0 0.3 0"/>
<feBlend mode="normal" in2="BackgroundImageFix" result="effect1_dropShadow_254_2433"/>
<feBlend mode="normal" in="SourceGraphic" in2="effect1_dropShadow_254_2433" result="shape"/>
</filter>
</defs>
</svg>
